<?xml version="1.0" standalone="no"?>
<!DOCTYPE svg PUBLIC "-//W3C//DTD SVG 20010904//EN"
 "http://www.w3.org/TR/2001/REC-SVG-20010904/DTD/svg10.dtd">
<svg version="1.0" xmlns="http://www.w3.org/2000/svg"
 width="512.000000pt" height="512.000000pt" viewBox="0 0 512.000000 512.000000"
 preserveAspectRatio="xMidYMid meet">

<g transform="translate(0.000000,512.000000) scale(0.100000,-0.100000)"
fill="#000000" stroke="none">
<path d="M2420 4603 l-65 -68 61 58 c33 32 63 54 67 51 4 -4 7 0 7 9 0 10 -1
17 -3 17 -1 0 -32 -30 -67 -67z"/>
<path d="M2471 4604 c0 -11 3 -14 6 -6 3 7 2 16 -1 19 -3 4 -6 -2 -5 -13z"/>
<path d="M2462 4540 c0 -14 2 -19 5 -12 2 6 2 18 0 25 -3 6 -5 1 -5 -13z"/>
<path d="M3740 4551 c0 -6 4 -13 10 -16 6 -3 7 1 4 9 -7 18 -14 21 -14 7z"/>
<path d="M2309 4483 c-13 -16 -12 -17 4 -4 9 7 17 15 17 17 0 8 -8 3 -21 -13z"/>
<path d="M2452 4460 c0 -19 2 -27 5 -17 2 9 2 25 0 35 -3 9 -5 1 -5 -18z"/>
<path d="M3740 4426 c0 -2 7 -7 16 -10 8 -3 12 -2 9 4 -6 10 -25 14 -25 6z"/>
<path d="M2444 4245 c0 -71 1 -99 3 -62 2 37 2 96 0 130 -2 34 -3 4 -3 -68z"/>
<path d="M3146 4357 c3 -10 9 -15 12 -12 3 3 0 11 -7 18 -10 9 -11 8 -5 -6z"/>
<path d="M3760 4291 c0 -6 4 -13 10 -16 6 -3 7 1 4 9 -7 18 -14 21 -14 7z"/>
<path d="M3780 4251 c0 -6 4 -13 10 -16 6 -3 7 1 4 9 -7 18 -14 21 -14 7z"/>
<path d="M3802 4185 c0 -16 2 -22 5 -12 2 9 2 23 0 30 -3 6 -5 -1 -5 -18z"/>
<path d="M2229 4113 c-13 -16 -12 -17 4 -4 9 7 17 15 17 17 0 8 -8 3 -21 -13z"/>
<path d="M2451 4074 c0 -11 3 -14 6 -6 3 7 2 16 -1 19 -3 4 -6 -2 -5 -13z"/>
<path d="M2414 4023 c-30 -41 -39 -62 -15 -33 23 27 44 60 38 60 -2 0 -12 -12
-23 -27z"/>
<path d="M3450 3960 c-6 -11 -8 -20 -6 -20 3 0 10 9 16 20 6 11 8 20 6 20 -3
0 -10 -9 -16 -20z"/>
<path d="M3180 3885 c19 -19 36 -35 39 -35 3 0 -10 16 -29 35 -19 19 -36 35
-39 35 -3 0 10 -16 29 -35z"/>
<path d="M3818 3893 c7 -3 16 -2 19 1 4 3 -2 6 -13 5 -11 0 -14 -3 -6 -6z"/>
<path d="M2050 3865 c-7 -9 -11 -17 -9 -20 3 -2 10 5 17 15 14 24 10 26 -8 5z"/>
<path d="M2262 3797 c-8 -10 -5 -16 11 -27 20 -12 21 -12 9 3 -8 9 -11 21 -7
27 9 14 0 13 -13 -3z"/>
<path d="M2575 3792 c16 -19 17 -24 4 -35 -8 -8 -71 -64 -141 -126 l-128 -113
30 -39 c27 -34 29 -39 14 -47 -14 -8 -17 -23 -15 -83 2 -98 -24 -154 -89 -187
l-45 -23 67 3 c43 2 69 -1 72 -8 2 -6 24 -16 49 -23 24 -7 76 -30 114 -51 91
-51 228 -194 302 -316 29 -49 50 -80 46 -69 -25 70 -37 106 -34 109 2 1 46 37
96 80 55 45 98 74 104 70 7 -4 9 -3 6 3 -4 6 2 18 14 28 22 21 12 28 181 -134
l66 -64 -21 -29 -21 -28 -35 32 -36 33 33 -36 32 -35 -79 -95 c-43 -52 -114
-128 -157 -170 l-79 -76 3 -49 c9 -124 -38 -340 -103 -480 -79 -171 -238 -347
-379 -420 -41 -21 -73 -40 -71 -42 2 -2 34 12 72 32 228 120 404 372 469 671
8 39 18 119 21 179 l6 109 86 86 c48 47 128 137 178 200 73 91 90 118 81 129
-8 9 -8 16 -2 20 6 4 37 28 70 53 32 25 98 72 146 104 48 31 89 64 92 72 7 17
-10 53 -25 53 -6 0 -3 -7 5 -16 9 -8 16 -19 16 -23 0 -12 -41 -45 -115 -94
-38 -25 -97 -66 -129 -90 l-60 -45 -93 81 c-68 58 -92 85 -87 96 16 39 44 134
43 149 0 10 -9 -14 -20 -52 -25 -88 -35 -105 -56 -100 -12 3 -51 -23 -108 -72
-49 -41 -106 -88 -126 -104 l-36 -29 -63 80 c-107 136 -224 223 -346 259 -34
10 -43 18 -56 54 -13 36 -13 45 -1 75 9 22 13 60 11 103 -2 37 -1 68 2 68 3 0
11 4 19 9 11 7 8 16 -15 46 l-28 37 65 62 c35 34 98 91 139 128 l75 67 -25 23
-24 23 19 -23z"/>
<path d="M2730 3796 c0 -2 39 -16 86 -31 301 -93 628 -280 897 -512 59 -51
107 -89 107 -84 0 5 -33 38 -72 73 -260 231 -578 418 -890 524 -92 31 -128 40
-128 30z"/>
<path d="M2093 3753 c15 -2 37 -2 50 0 12 2 0 4 -28 4 -27 0 -38 -2 -22 -4z"/>
<path d="M2008 3734 c-16 -8 -28 -17 -28 -20 0 -2 12 2 28 9 15 8 34 17 42 20
13 5 13 5 0 6 -8 0 -27 -7 -42 -15z"/>
<path d="M2188 3735 c13 -9 26 -14 29 -11 8 8 3 12 -27 21 l-25 7 23 -17z"/>
<path d="M1934 3675 c-15 -20 -25 -37 -23 -39 2 -2 16 14 31 35 35 49 28 51
-8 4z"/>
<path d="M2560 3575 c-63 -63 -110 -115 -105 -115 13 0 231 218 224 224 -3 3
-56 -46 -119 -109z"/>
<path d="M1901 3604 c0 -11 3 -14 6 -6 3 7 2 16 -1 19 -3 4 -6 -2 -5 -13z"/>
<path d="M2178 3613 c7 -3 16 -2 19 1 4 3 -2 6 -13 5 -11 0 -14 -3 -6 -6z"/>
<path d="M3889 3583 c-13 -16 -12 -17 4 -4 16 13 21 21 13 21 -2 0 -10 -8 -17
-17z"/>
<path d="M1892 3550 c0 -19 2 -27 5 -17 2 9 2 25 0 35 -3 9 -5 1 -5 -18z"/>
<path d="M2290 3550 c6 -11 13 -20 16 -20 2 0 0 9 -6 20 -6 11 -13 20 -16 20
-2 0 0 -9 6 -20z"/>
<path d="M2590 3453 c-106 -123 -123 -144 -118 -148 4 -5 175 186 192 213 4 6
4 12 -1 11 -4 0 -37 -34 -73 -76z"/>
<path d="M1892 3482 c-11 -25 -11 -25 4 -10 9 9 15 21 13 27 -2 6 -10 -2 -17
-17z"/>
<path d="M2045 3470 c10 -11 20 -20 23 -20 3 0 -3 9 -13 20 -10 11 -20 20 -23
20 -3 0 3 -9 13 -20z"/>
<path d="M2230 3476 c0 -9 5 -16 10 -16 6 0 10 4 10 9 0 6 -4 13 -10 16 -5 3
-10 -1 -10 -9z"/>
<path d="M3188 3433 c-55 -85 -60 -93 -52 -93 11 0 88 119 82 126 -3 2 -16
-13 -30 -33z"/>
<path d="M4566 3423 c-6 -14 -5 -15 5 -6 7 7 10 15 7 18 -3 3 -9 -2 -12 -12z"/>
<path d="M4571 3384 c0 -11 3 -14 6 -6 3 7 2 16 -1 19 -3 4 -6 -2 -5 -13z"/>
<path d="M2266 3359 c-8 -12 -12 -28 -9 -35 6 -17 23 -9 23 11 0 8 10 21 22
29 l22 16 -21 0 c-12 0 -29 -10 -37 -21z"/>
<path d="M4529 3363 c-13 -16 -12 -17 4 -4 16 13 21 21 13 21 -2 0 -10 -8 -17
-17z"/>
<path d="M2080 3360 c0 -5 -14 -25 -31 -45 -33 -38 -26 -50 8 -12 28 31 46 67
33 67 -5 0 -10 -4 -10 -10z"/>
<path d="M4561 3334 c0 -11 3 -14 6 -6 3 7 2 16 -1 19 -3 4 -6 -2 -5 -13z"/>
<path d="M4494 3318 l-19 -23 23 19 c21 18 27 26 19 26 -2 0 -12 -10 -23 -22z"/>
<path d="M1880 3316 c0 -2 8 -10 18 -17 15 -13 16 -12 3 4 -13 16 -21 21 -21
13z"/>
<path d="M3362 3307 c-6 -7 -36 -51 -66 -98 -51 -77 -56 -81 -57 -54 -1 28 -2
27 -10 -9 -5 -22 -8 -44 -6 -50 2 -5 34 37 71 95 37 57 75 110 84 117 9 6 11
12 5 12 -6 0 -15 -6 -21 -13z"/>
<path d="M3418 3308 c20 -20 14 -40 -33 -111 -25 -37 -41 -67 -37 -67 5 0 31
28 58 62 27 35 57 71 67 80 21 22 10 24 -13 3 -16 -14 -18 -13 -23 15 -4 16
-12 30 -19 30 -9 0 -9 -3 0 -12z m8 -76 c-17 -16 -18 -16 -5 5 7 12 15 20 18
17 3 -2 -3 -12 -13 -22z"/>
<path d="M4551 3284 c0 -11 3 -14 6 -6 3 7 2 16 -1 19 -3 4 -6 -2 -5 -13z"/>
<path d="M3522 3276 c7 -8 15 -12 17 -11 5 6 -10 25 -20 25 -5 0 -4 -6 3 -14z"/>
<path d="M4541 3244 c0 -11 3 -14 6 -6 3 7 2 16 -1 19 -3 4 -6 -2 -5 -13z"/>
<path d="M3531 3241 c-1 -7 -31 -50 -68 -95 l-68 -81 63 55 c89 77 106 87 126
71 24 -20 20 -37 -21 -74 -21 -19 -54 -49 -73 -67 -34 -31 -34 -32 -5 -15 48
29 70 45 60 45 -5 0 8 15 28 34 38 35 46 63 25 84 -18 18 -42 15 -72 -9 -31
-25 -34 -14 -5 17 12 12 19 29 16 36 -4 11 -6 10 -6 -1z"/>
<path d="M3160 3221 c-5 -11 -10 -30 -9 -43 1 -25 4 -19 13 24 3 14 14 29 24
31 16 4 16 5 0 6 -10 0 -22 -8 -28 -18z"/>
<path d="M3224 3224 c9 -8 16 -20 16 -26 0 -6 3 -9 6 -6 8 9 -14 48 -27 48 -6
0 -3 -7 5 -16z"/>
<path d="M4395 3220 c-16 -17 -16 -20 -3 -15 9 4 19 13 22 21 7 19 2 18 -19
-6z"/>
<path d="M2027 3190 c-4 -14 -7 -35 -7 -47 0 -14 -6 -23 -15 -23 -8 0 -15 5
-15 12 0 6 -3 8 -7 5 -4 -4 3 -20 14 -35 l21 -28 -52 -27 c-57 -31 -75 -46
-126 -102 -22 -25 -13 -19 25 16 66 61 138 104 161 95 8 -3 12 -1 9 4 -3 5 6
12 20 16 13 3 22 10 19 15 -3 5 -10 7 -15 4 -5 -3 -7 0 -4 7 3 7 -1 36 -8 63
-12 44 -14 47 -20 25z m16 -90 c-6 -24 -16 -25 -33 -5 -12 15 -4 20 22 16 4 0
5 14 3 32 -5 31 -5 31 4 5 5 -15 7 -37 4 -48z"/>
<path d="M4240 3110 c-9 -6 -10 -10 -3 -10 6 0 15 5 18 10 8 12 4 12 -15 0z"/>
<path d="M2098 3073 c7 -3 16 -2 19 1 4 3 -2 6 -13 5 -11 0 -14 -3 -6 -6z"/>
<path d="M4121 3051 c-8 -5 -9 -11 -3 -15 5 -3 12 1 16 9 6 17 6 18 -13 6z"/>
<path d="M4008 3013 c7 -3 16 -2 19 1 4 3 -2 6 -13 5 -11 0 -14 -3 -6 -6z"/>
<path d="M3805 2833 c-37 -98 -91 -233 -120 -300 -49 -115 -51 -123 -31 -123
14 0 17 3 9 8 -9 6 -2 32 28 102 56 129 191 482 186 486 -2 2 -34 -76 -72
-173z"/>
<path d="M3908 3003 c12 -2 32 -2 45 0 12 2 2 4 -23 4 -25 0 -35 -2 -22 -4z"/>
<path d="M3616 2782 c-50 -103 -92 -190 -94 -194 -2 -5 0 -8 5 -8 4 0 46 80
92 178 47 97 89 185 93 195 5 9 5 17 1 17 -4 0 -48 -85 -97 -188z"/>
<path d="M4324 2788 l-19 -23 23 19 c21 18 27 26 19 26 -2 0 -12 -10 -23 -22z"/>
<path d="M4269 2723 l-24 -28 28 24 c25 23 32 31 24 31 -2 0 -14 -12 -28 -27z"/>
<path d="M4199 2663 c-13 -16 -12 -17 4 -4 16 13 21 21 13 21 -2 0 -10 -8 -17
-17z"/>
<path d="M3391 2560 c-63 -114 -68 -125 -51 -115 13 8 123 215 117 221 -2 3
-32 -45 -66 -106z"/>
<path d="M4123 2624 c3 -4 -4 -15 -16 -26 l-22 -19 27 17 c24 14 30 34 11 34
-4 0 -4 -3 0 -6z"/>
<path d="M4055 2570 c-3 -6 1 -7 9 -4 18 7 21 14 7 14 -6 0 -13 -4 -16 -10z"/>
<path d="M3817 2469 c7 -7 15 -10 18 -7 3 3 -2 9 -12 12 -14 6 -15 5 -6 -5z"/>
<path d="M2550 2440 c0 -5 5 -10 11 -10 5 0 7 5 4 10 -3 6 -8 10 -11 10 -2 0
-4 -4 -4 -10z"/>
<path d="M3728 2433 c7 -3 16 -2 19 1 4 3 -2 6 -13 5 -11 0 -14 -3 -6 -6z"/>
<path d="M1494 2367 c2 -39 9 -67 23 -85 17 -23 19 -35 12 -87 -4 -33 -8 -69
-9 -80 -2 -17 -3 -16 -10 5 -4 14 -8 39 -9 56 -1 18 -9 42 -20 55 -17 22 -20
22 -42 7 -13 -9 -33 -31 -43 -49 -18 -31 -16 -30 22 11 39 42 43 44 56 27 7
-9 16 -39 19 -67 3 -27 12 -60 19 -72 12 -22 13 -21 19 22 4 25 8 64 8 88 1
25 6 42 13 42 6 0 2 10 -9 23 -26 28 -34 50 -44 112 l-8 50 3 -58z"/>
<path d="M3939 2343 l-24 -28 28 24 c25 23 32 31 24 31 -2 0 -14 -12 -28 -27z"/>
<path d="M3348 2340 c-25 -16 -22 -54 8 -106 30 -51 27 -85 -8 -102 -17 -8
-19 -11 -6 -11 9 -1 26 10 37 24 19 25 19 27 2 66 -10 22 -24 46 -30 52 -6 6
-11 24 -11 39 0 32 29 44 85 34 39 -8 55 -30 55 -75 0 -33 12 -37 60 -20 20 7
17 7 -12 3 -37 -5 -38 -4 -38 29 0 21 -7 41 -20 52 -23 21 -98 30 -122 15z"/>
<path d="M3854 2288 l-19 -23 23 19 c12 11 22 21 22 23 0 8 -8 2 -26 -19z"/>
<path d="M1039 2203 c-13 -16 -12 -17 4 -4 9 7 17 15 17 17 0 8 -8 3 -21 -13z"/>
<path d="M3528 2213 c7 -3 16 -2 19 1 4 3 -2 6 -13 5 -11 0 -14 -3 -6 -6z"/>
<path d="M3470 2178 c0 -18 4 -40 9 -47 6 -10 8 -1 4 26 -4 34 -2 42 13 46 16
4 15 5 -3 6 -19 1 -23 -4 -23 -31z"/>
<path d="M1653 2095 c-1 -99 6 -139 24 -142 6 -1 49 -13 95 -25 70 -19 106
-22 228 -21 99 0 163 6 200 16 54 16 54 16 10 10 -140 -18 -380 5 -494 48
l-55 20 -4 92 -3 92 -1 -90z"/>
<path d="M1363 2120 c-1 -16 2 -32 6 -35 5 -3 7 5 3 17 -4 15 -2 19 7 13 10
-6 11 -3 2 14 -15 27 -16 27 -18 -9z"/>
<path d="M3261 2104 c-21 -15 -23 -22 -18 -78 8 -103 55 -207 91 -206 6 0 3 5
-7 11 -37 22 -74 130 -73 214 1 48 2 50 36 62 22 8 28 12 15 12 -11 1 -31 -6
-44 -15z"/>
<path d="M1260 2096 c0 -2 8 -10 18 -17 15 -13 16 -12 3 4 -13 16 -21 21 -21
13z"/>
<path d="M1440 2076 c0 -2 8 -10 18 -17 15 -13 16 -12 3 4 -13 16 -21 21 -21
13z"/>
<path d="M2580 2071 c0 -6 4 -13 10 -16 6 -3 7 1 4 9 -7 18 -14 21 -14 7z"/>
<path d="M1412 2006 c7 -8 15 -12 17 -11 5 6 -10 25 -20 25 -5 0 -4 -6 3 -14z"/>
<path d="M1460 2006 c0 -2 8 -10 18 -17 15 -13 16 -12 3 4 -13 16 -21 21 -21
13z"/>
<path d="M1525 1970 c3 -5 8 -10 11 -10 2 0 4 5 4 10 0 6 -5 10 -11 10 -5 0
-7 -4 -4 -10z"/>
<path d="M1531 1923 c7 -12 15 -20 18 -17 3 2 -3 12 -13 22 -17 16 -18 16 -5
-5z"/>
<path d="M990 1885 c-24 -25 -42 -45 -39 -45 3 0 25 20 49 45 24 25 42 45 39
45 -3 0 -25 -20 -49 -45z"/>
<path d="M1671 1914 c0 -11 3 -14 6 -6 3 7 2 16 -1 19 -3 4 -6 -2 -5 -13z"/>
<path d="M1466 1907 c3 -10 9 -15 12 -12 3 3 0 11 -7 18 -10 9 -11 8 -5 -6z"/>
<path d="M2697 1885 c-9 -19 -15 -35 -12 -35 7 0 37 61 33 66 -3 2 -12 -12
-21 -31z"/>
<path d="M1685 1869 c18 -67 82 -175 135 -232 58 -62 120 -107 120 -88 0 6 -7
11 -16 11 -29 0 -148 131 -182 199 -17 35 -29 67 -26 72 3 5 0 9 -6 9 -7 0
-10 6 -7 13 2 6 -2 18 -10 26 -13 12 -14 11 -8 -10z"/>
<path d="M1487 1850 c3 -11 7 -20 9 -20 2 0 4 9 4 20 0 11 -4 20 -9 20 -5 0
-7 -9 -4 -20z"/>
<path d="M2660 1820 c-6 -11 -8 -20 -6 -20 3 0 10 9 16 20 6 11 8 20 6 20 -3
0 -10 -9 -16 -20z"/>
<path d="M3095 1760 c-26 -45 -45 -83 -42 -86 5 -5 80 116 93 150 15 38 -8 10
-51 -64z"/>
<path d="M1501 1805 c0 -12 -7 -27 -13 -34 -20 -19 42 -71 85 -71 29 0 35 -6
59 -53 46 -87 122 -171 203 -226 89 -59 174 -88 282 -95 l78 -6 -95 14 c-105
15 -195 48 -262 94 -68 46 -160 151 -198 223 -30 58 -36 65 -60 61 -35 -5 -96
44 -79 64 6 7 9 21 6 31 -4 15 -5 15 -6 -2z"/>
<path d="M2604 1738 l-19 -23 23 19 c12 11 22 21 22 23 0 8 -8 2 -26 -19z"/>
<path d="M2963 1748 c-28 -34 -174 -281 -171 -289 2 -4 45 59 96 142 51 83 91
153 89 155 -2 3 -9 -1 -14 -8z"/>
<path d="M3755 1740 c10 -11 20 -20 23 -20 3 0 -3 9 -13 20 -10 11 -20 20 -23
20 -3 0 3 -9 13 -20z"/>
<path d="M2535 1663 c-87 -81 -236 -162 -272 -149 -7 3 -13 1 -13 -4 0 -6 -12
-11 -27 -11 -19 -1 -22 -3 -9 -6 57 -15 253 86 341 176 52 55 42 51 -20 -6z"/>
<path d="M1485 1630 c-14 -29 -24 -54 -21 -57 2 -3 17 18 31 47 14 29 24 54
21 57 -2 3 -17 -18 -31 -47z"/>
<path d="M1347 1518 c-31 -67 -55 -123 -53 -126 5 -4 81 143 109 211 9 20 13
37 9 37 -4 0 -33 -55 -65 -122z"/>
<path d="M2040 1500 c14 -4 36 -8 50 -8 22 0 22 1 -5 8 -16 4 -39 8 -50 8 -16
0 -15 -2 5 -8z"/>
<path d="M2305 1355 c-22 -8 -31 -14 -20 -14 11 0 34 6 50 14 38 17 22 17 -30
0z"/>
<path d="M2213 1333 c9 -2 25 -2 35 0 9 3 1 5 -18 5 -19 0 -27 -2 -17 -5z"/>
<path d="M959 1243 c-12 -16 -12 -17 2 -6 14 11 23 4 62 -47 52 -67 80 -79
125 -56 46 24 72 20 124 -18 26 -18 85 -50 132 -71 l84 -37 136 107 c75 59
138 106 140 104 2 -2 30 -49 61 -104 32 -55 58 -101 59 -102 1 -1 46 14 101
32 55 19 92 35 83 35 -9 0 -53 -13 -97 -28 l-81 -29 -60 104 c-33 56 -64 103
-68 103 -4 0 -67 -47 -141 -105 -74 -58 -136 -105 -138 -105 -13 0 -195 93
-222 114 -41 30 -67 32 -116 9 -45 -22 -67 -10 -120 62 -22 30 -42 55 -46 55
-4 0 -13 -8 -20 -17z"/>
<path d="M2732 1155 l-93 -73 -68 30 -68 30 -70 -35 c-38 -20 -84 -47 -100
-61 -40 -34 -74 -33 -152 4 -35 17 -66 29 -68 27 -7 -8 135 -67 161 -67 16 0
42 12 59 26 16 14 61 41 100 60 l70 36 68 -31 69 -31 91 71 c50 39 95 67 99
62 5 -4 22 -39 39 -78 17 -38 30 -65 31 -60 0 15 -63 165 -69 165 -3 -1 -48
-34 -99 -75z"/>
<path d="M1528 793 c6 -2 18 -2 25 0 6 3 1 5 -13 5 -14 0 -19 -2 -12 -5z"/>
<path d="M1870 790 c-11 -7 -5 -8 20 -4 43 8 51 14 19 14 -13 0 -31 -5 -39
-10z"/>
<path d="M3006 743 c-6 -14 -5 -15 5 -6 7 7 10 15 7 18 -3 3 -9 -2 -12 -12z"/>
<path d="M1040 733 c0 -6 8 -17 18 -24 16 -13 16 -13 2 6 -8 11 -16 22 -17 24
-2 2 -3 0 -3 -6z"/>
<path d="M2940 691 c0 -6 4 -13 10 -16 6 -3 7 1 4 9 -7 18 -14 21 -14 7z"/>
<path d="M2505 580 l-30 -8 30 0 c17 0 39 3 50 8 l20 9 -20 -1 c-11 0 -33 -4
-50 -8z"/>
<path d="M1079 533 c-13 -16 -12 -17 4 -4 16 13 21 21 13 21 -2 0 -10 -8 -17
-17z"/>
</g>
</svg>
